<svg xmlns="http://www.w3.org/2000/svg" viewBox="0 0 2277.64 1728"><defs><style>.cls-1{fill:#fff}.cls-2{fill:#ff671d}.cls-3{fill:#009a3d}.cls-4{fill:#646464}.cls-5{stroke-width:3px}.cls-5,.cls-6{fill:none;stroke:#000;stroke-miterlimit:10}.cls-7{fill:#e2e3e4}.cls-6{stroke-width:5px}</style></defs><g id="Detailed"><path d="M790.6 360.67h2.64v15.22h-2.64zm-5.4 0h2.64v15.22h-2.64zm37.77 0h2.64v15.22h-2.64zm-5.4 0h2.64v15.22h-2.64zm-5.39 0h2.64v15.22h-2.64zm-5.4 0h2.64v15.22h-2.64zm-5.39 0h2.64v15.22h-2.64zm-5.4 0h2.64v15.22h-2.64zm70.14 0h2.58v15.22h-2.58zm-5.4 0h2.64v15.22h-2.64zm-5.39 0h2.64v15.22h-2.64zm-5.4 0h2.64v15.22h-2.64zm-5.39 0h2.64v15.22h-2.64zm-5.4 0h2.64v15.22h-2.64zm-5.39 0h2.64v15.22h-2.64zm-5.4 0H831v15.22h-2.64zm1055.17 1023.22h-12.88v-90.47h12.88zm-13.78 79.55h-10.79v-174.03h10.79zm0-224.36h-14.12v-227.97h14.12zm0-298.08h-14.12V637.67h14.12zm18.77 298.08h-17.97v-227.97h17.97zm-.87-306.42h-17.22V635.77h17.22zm0-357.88h-17.33V342h17.33zm-18 6.22h-10.58V339.67h10.58zm78.39 358h-29.31V643.33h29.31zm0-353h-29.31V376.67h29.31zm83.34 353h-28.97V643.33h28.97zm0-353h-28.97V376.67h28.97zm90.44 94.78h-36.08v249.78h14.64V697.44h21.44v-16.66zm15.56-83.11h-15.86v-58.44h15.86zm0 80.1h-15.86v-54.22h15.86zm-37-157.77V341h-14.64v195.78h36.8V520h-22.16zm-163.64 719.08h-19.78v-228.97h19.78zm116.33 0h-21.11v-228.97h21.11zm40.33-14.75h-19.33v-214.22h19.33zm32.56-3h-12v-207.56h12zm-115.44 17.75h-21.44v-228.97h21.44zm-177.12 204.37h-19.33V1291.2h19.33zm-336.08 24.12v-4.13h10.54v-158.77h-4.32v-7.23h-18.5V1413h-4.8v67.67h373.61v-13.1h-356.53z" class="cls-7"/><path d="M1709.18 1447h-17.33v-155.81h17.33zm-35.55 0h-19.11v-155.81h19.11zm-123.78 0h-20v-155.81h20zm82.89 0h-22.44v-155.67h22.44zm116.33 0h-22.44v-129.67h22.44zm-157.22 0h-23.78v-155.67h23.78zm201.33-10.88h-21.11V1291.2h21.11zM1970.59 1239h-15.11v-15.11h15.11zm0-35.89h-15.11V1188h15.11zm0-35.66h-15.11v-15.11h15.11zm0-35.68h-15.11v-15.11h15.11zm-437.8 101.95h-15.11v-29.06h15.1" class="cls-7"/></g></svg>
